<svg width="800" height="800" viewBox="0 0 800 800" fill="none" xmlns="http://www.w3.org/2000/svg">
<path fill-rule="evenodd" clip-rule="evenodd" d="M424.753 226.669H226.663L299.195 340.198C300.014 341.479 301.388 342.254 302.908 342.254H399.869C430.681 342.254 449.942 369.498 449.83 400.002C449.717 430.506 429.191 457.478 399.869 457.478H302.266C301.446 457.478 300.816 458.143 300.816 458.963V573.335H424.753C523.953 573.335 573.269 479.219 573.33 400.002C573.39 320.785 524.65 226.669 424.753 226.669ZM276.309 457.745H251.486C237.777 457.745 226.664 470.677 226.664 486.63V573.286H251.486C265.196 573.286 276.309 560.353 276.309 544.4V457.745Z" fill="url(#paint0_linear)"/>
<defs>
<linearGradient id="paint0_linear" x1="139.996" y1="400.002" x2="486.663" y2="573.335" gradientUnits="userSpaceOnUse">
<stop stop-color="#409FF8"/>
<stop offset="0.652135" stop-color="#516FF7"/>
<stop offset="1" stop-color="#5A4FFF"/>
</linearGradient>
</defs>
</svg>
